<?xml version="1.0" standalone="no"?>
<!DOCTYPE svg PUBLIC "-//W3C//DTD SVG 20010904//EN"
 "http://www.w3.org/TR/2001/REC-SVG-20010904/DTD/svg10.dtd">
<svg version="1.0" xmlns="http://www.w3.org/2000/svg"
 width="1020.000000pt" height="510.000000pt" viewBox="0 0 1020.000000 510.000000"
 preserveAspectRatio="xMidYMid meet">

<g transform="translate(0.000000,510.000000) scale(0.100000,-0.100000)"
fill="#000000" stroke="none">
<path d="M5143 3535 c-73 -18 -139 -59 -200 -124 -65 -70 -108 -154 -130 -253
-15 -71 -15 -84 -1 -156 29 -146 102 -256 221 -333 97 -63 250 -84 380 -53 22
5 26 4 21 -10 -5 -14 24 -15 327 -9 184 3 335 7 337 8 2 1 -70 134 -159 294
-119 214 -165 289 -174 281 -8 -7 -16 5 -28 44 -34 107 -134 229 -229 277 -92
47 -251 62 -365 34z m169 -182 c15 -14 18 -32 18 -120 l0 -103 103 0 c90 0
106 -3 121 -19 23 -26 17 -63 -14 -78 -15 -7 -63 -13 -117 -13 l-93 0 0 -104
c0 -71 -4 -107 -12 -113 -28 -21 -49 -22 -68 -3 -17 17 -20 34 -20 120 l0 100
-98 0 c-85 0 -101 3 -120 20 -27 26 -28 44 -2 70 17 17 33 20 120 20 l100 0 0
100 c0 87 3 103 20 120 24 24 38 25 62 3z m463 -458 c0 -54 -4 -69 -30 -106
-21 -30 -46 -50 -78 -63 -26 -11 -50 -17 -53 -13 -4 4 9 26 28 49 46 57 83
123 99 176 17 59 34 38 34 -43z"/>
<path d="M3432 1778 c-27 -27 -6 -68 35 -68 29 0 48 33 33 60 -12 22 -49 27
-68 8z"/>
<path d="M2470 1752 c-68 -34 -88 -126 -38 -179 12 -13 50 -32 85 -43 79 -24
100 -35 113 -60 15 -29 -3 -56 -45 -70 -41 -14 -86 -2 -121 31 -21 20 -23 20
-48 4 -24 -16 -24 -18 -10 -40 22 -34 92 -65 145 -65 60 1 124 31 143 69 42
80 -1 144 -122 180 -88 26 -115 55 -88 95 8 14 25 28 37 31 31 10 84 -3 104
-25 21 -23 33 -24 58 -6 15 12 16 18 7 35 -29 54 -150 78 -220 43z"/>
<path d="M4640 1555 l0 -215 35 0 35 0 0 141 c0 162 0 162 70 45 40 -67 48
-76 75 -76 27 0 35 8 78 80 26 43 52 82 57 85 6 4 10 -46 10 -134 l0 -141 35
0 35 0 -2 213 -3 212 -26 3 c-31 4 -39 -5 -119 -136 -34 -57 -66 -100 -70 -95
-4 4 -33 51 -65 103 -75 122 -82 130 -117 130 l-28 0 0 -215z"/>
<path d="M3937 1743 c-4 -3 -7 -26 -7 -50 0 -36 -3 -43 -20 -43 -16 0 -20 -7
-20 -30 0 -23 4 -30 20 -30 18 0 20 -7 20 -72 1 -143 28 -192 104 -186 38 3
41 5 44 36 3 30 1 33 -17 27 -13 -4 -27 1 -41 15 -18 18 -20 31 -18 98 l3 77
43 3 c39 3 42 5 42 32 0 27 -3 29 -42 32 l-43 3 -3 48 c-3 44 -5 47 -31 47
-15 0 -31 -3 -34 -7z"/>
<path d="M8027 1743 c-4 -3 -7 -26 -7 -50 0 -36 -3 -43 -20 -43 -16 0 -20 -7
-20 -30 0 -23 4 -30 20 -30 18 0 20 -7 20 -72 1 -143 28 -192 104 -186 38 3
41 5 44 36 3 30 1 33 -17 27 -13 -4 -27 1 -41 15 -18 18 -20 31 -18 98 l3 77
43 3 c39 3 42 5 42 32 0 27 -3 29 -42 32 l-43 3 -3 48 c-3 44 -5 47 -31 47
-15 0 -31 -3 -34 -7z"/>
<path d="M2844 1650 c-58 -23 -93 -108 -80 -195 21 -137 194 -171 266 -53 43
71 17 202 -48 241 -32 18 -102 22 -138 7z m111 -75 c20 -20 25 -34 25 -78 0
-61 -18 -92 -61 -102 -36 -9 -78 29 -86 77 -16 101 60 166 122 103z"/>
<path d="M3173 1641 c-45 -28 -63 -61 -70 -124 -7 -64 20 -136 61 -162 59 -39
143 -28 189 23 18 20 18 21 -7 38 -24 15 -28 15 -44 1 -50 -45 -117 -17 -129
55 -15 99 53 161 120 108 25 -20 27 -20 52 -4 l26 17 -30 30 c-40 40 -119 49
-168 18z"/>
<path d="M3633 1639 c-58 -37 -82 -156 -45 -229 9 -19 33 -45 52 -58 49 -33
129 -27 168 11 25 25 25 28 9 44 -16 16 -19 16 -46 0 -43 -25 -86 -22 -110 9
-39 49 -31 54 84 54 l105 0 0 40 c0 92 -55 150 -140 150 -28 0 -57 -8 -77 -21z
m130 -61 c32 -37 18 -53 -47 -56 -71 -4 -83 5 -62 46 24 46 73 51 109 10z"/>
<path d="M4118 1655 c-3 -3 21 -74 54 -158 l60 -152 -17 -50 c-10 -27 -20 -56
-22 -62 -4 -9 6 -13 30 -13 24 0 37 6 42 18 48 119 155 404 155 412 0 5 -15
10 -34 10 l-35 0 -38 -115 c-20 -63 -40 -115 -43 -115 -3 0 -23 51 -45 113
-38 107 -41 112 -70 115 -17 2 -33 0 -37 -3z"/>
<path d="M5193 1640 c-38 -23 -40 -30 -13 -55 19 -17 21 -17 40 0 37 33 110
10 110 -35 0 -14 -12 -19 -57 -25 -67 -8 -107 -28 -122 -62 -12 -27 -14 -63
-5 -88 8 -20 56 -45 88 -45 29 0 76 19 76 32 0 4 5 8 10 8 6 0 10 -7 10 -15 0
-10 11 -15 35 -15 l35 0 0 110 c0 127 -13 171 -59 194 -42 22 -109 20 -148 -4z
m137 -193 c0 -36 -32 -59 -77 -55 -78 6 -42 78 39 78 33 0 38 -3 38 -23z"/>
<path d="M5583 1648 c-13 -6 -23 -15 -23 -20 0 -4 -4 -8 -10 -8 -5 0 -10 7
-10 15 0 10 -11 15 -35 15 l-35 0 0 -155 0 -155 35 0 35 0 0 105 c0 99 2 107
25 130 29 30 58 32 85 5 18 -18 20 -33 20 -130 l0 -110 35 0 35 0 0 115 c0
163 -22 206 -102 204 -18 0 -43 -5 -55 -11z"/>
<path d="M5860 1643 c-38 -26 -42 -36 -19 -56 19 -15 24 -16 38 -4 35 30 81
27 103 -7 21 -30 8 -42 -59 -53 -55 -10 -73 -18 -95 -43 -38 -41 -37 -83 1
-121 35 -35 81 -38 129 -9 26 16 32 17 32 5 0 -10 11 -15 35 -15 l35 0 0 114
c0 63 -4 126 -10 140 -22 58 -135 87 -190 49z m130 -196 c0 -36 -32 -59 -77
-55 -33 3 -38 6 -38 28 0 29 34 50 83 50 27 0 32 -4 32 -23z"/>
<path d="M6175 1638 c-80 -62 -71 -239 15 -283 40 -21 82 -19 113 5 14 11 28
20 31 20 15 0 4 -60 -15 -84 -25 -32 -81 -35 -118 -7 -23 17 -27 18 -48 4 -23
-15 -23 -16 -6 -35 50 -56 158 -64 209 -17 47 43 54 75 54 249 l0 160 -35 0
c-24 0 -35 -5 -35 -15 0 -20 -7 -19 -37 5 -34 27 -92 26 -128 -2z m118 -49
c63 -29 62 -150 -1 -178 -33 -16 -75 1 -91 35 -20 44 -14 102 14 129 27 28 42
30 78 14z"/>
<path d="M6543 1640 c-46 -27 -67 -74 -68 -145 0 -73 25 -122 75 -147 61 -31
142 -19 180 27 12 15 11 19 -10 35 -24 18 -25 18 -46 -1 -41 -39 -124 -12
-124 41 0 19 7 20 99 20 98 0 99 0 104 26 8 46 -10 97 -47 132 -30 27 -43 32
-83 32 -30 0 -60 -7 -80 -20z m100 -41 c28 -15 37 -28 37 -56 0 -22 -4 -23
-65 -23 -59 0 -65 2 -65 20 0 22 41 70 60 70 6 0 21 -5 33 -11z"/>
<path d="M6916 1639 c-23 -18 -27 -18 -32 -5 -4 10 -18 16 -35 16 l-29 0 0
-155 0 -155 29 0 28 0 5 110 c5 118 18 150 63 150 45 0 55 -27 55 -148 l0
-112 35 0 35 0 0 101 c0 124 15 158 67 159 41 0 53 -35 53 -152 l0 -108 35 0
35 0 0 108 c0 165 -22 212 -98 212 -36 0 -88 -23 -94 -41 -2 -7 -14 -2 -31 14
-33 33 -83 36 -121 6z"/>
<path d="M7382 1640 c-42 -26 -62 -73 -62 -147 0 -71 24 -119 71 -145 59 -31
141 -19 179 27 13 15 11 20 -9 36 -24 19 -24 19 -46 -1 -31 -29 -79 -26 -104
6 -38 48 -30 53 82 56 l102 3 3 29 c6 46 -26 115 -62 137 -41 25 -111 25 -154
-1z m125 -54 c7 -6 14 -22 15 -36 3 -24 1 -25 -64 -28 -57 -2 -68 0 -68 13 0
60 74 92 117 51z"/>
<path d="M7773 1648 c-13 -6 -23 -15 -23 -20 0 -4 -4 -8 -10 -8 -5 0 -10 7
-10 15 0 10 -11 15 -35 15 l-35 0 0 -155 0 -155 35 0 35 0 0 105 c0 99 2 107
25 130 29 30 58 32 85 5 18 -18 20 -33 20 -130 l0 -110 35 0 35 0 0 115 c0
163 -22 206 -102 204 -18 0 -43 -5 -55 -11z"/>
<path d="M3430 1495 l0 -155 35 0 35 0 0 155 0 155 -35 0 -35 0 0 -155z"/>
</g>
</svg>
