<?xml version="1.0" encoding="UTF-8"?>
<svg version="1.1" xmlns="http://www.w3.org/2000/svg" width="187" height="74">
<path d="M0 0 C61.71 0 123.42 0 187 0 C187 24.42 187 48.84 187 74 C125.29 74 63.58 74 0 74 C0 49.58 0 25.16 0 0 Z " fill="#F4F4F5" transform="translate(0,0)"/>
<path d="M0 0 C1.08120531 0.00436926 1.08120531 0.00436926 2.18425316 0.00882679 C2.94464832 0.00797237 3.70504348 0.00711794 4.48848093 0.00623763 C7.05583184 0.00458053 9.62311851 0.01010792 12.19046348 0.01555592 C14.02309998 0.01583777 15.8557366 0.0156801 17.68837303 0.01511341 C22.67989996 0.01482535 27.67140309 0.02072354 32.66292447 0.02768737 C37.87331041 0.0339194 43.08369683 0.03452459 48.29408592 0.03571278 C58.16802959 0.03882654 68.04196225 0.04704053 77.91590106 0.05706227 C89.15391935 0.06822202 100.39193815 0.07373351 111.6299606 0.0787577 C134.75421963 0.08922311 157.87846887 0.10682341 181.00271934 0.12908131 C181.00271934 2.10908131 181.00271934 4.08908131 181.00271934 6.12908131 C119.29271934 6.12908131 57.58271934 6.12908131 -5.99728066 6.12908131 C-5.99728066 -0.40696344 -5.91359737 0.01811696 0 0 Z " fill="#ECEDF3" transform="translate(5.997280657291412,67.8709186911583)"/>
<path d="M0 0 C4.53452087 1.97153081 7.78471909 4.37069061 9.875 8.9375 C10.84105319 14.49230584 11.18897371 20.06675309 8.796875 25.29296875 C5.47151591 29.57756604 1.20153677 32.03405913 -4.125 32.9375 C-9.13807706 33.1858258 -13.51843106 32.85853172 -17.5625 29.6875 C-21.94142034 24.98817085 -23.42463485 21.88875664 -23.5 15.4375 C-23.68905669 9.95360974 -23.68905669 9.95360974 -26.6875 5.625 C-27.491875 5.068125 -28.29625 4.51125 -29.125 3.9375 C-28.46113281 3.98390625 -27.79726563 4.0303125 -27.11328125 4.078125 C-21.30529905 4.37441329 -21.30529905 4.37441329 -16.125 2 C-15.465 1.319375 -14.805 0.63875 -14.125 -0.0625 C-9.78707452 -2.23146274 -4.49740311 -1.4097629 0 0 Z " fill="#D5DFFA" transform="translate(61.125,4.0625)"/>
<path d="M0 0 C1.21236328 0.04060547 1.21236328 0.04060547 2.44921875 0.08203125 C3.06410156 0.11683594 3.67898437 0.15164062 4.3125 0.1875 C4.39347324 2.45774968 4.45167704 4.72882075 4.5 7 C4.53480469 8.26457031 4.56960937 9.52914062 4.60546875 10.83203125 C4.3125 14.1875 4.3125 14.1875 2.9921875 16.12109375 C0.43065517 17.74736893 -1.73034463 17.4391728 -4.6875 17.1875 C-5.3475 16.8575 -6.0075 16.5275 -6.6875 16.1875 C-6.6875 15.5275 -6.6875 14.8675 -6.6875 14.1875 C-4.0475 14.5175 -1.4075 14.8475 1.3125 15.1875 C0.9825 14.1975 0.6525 13.2075 0.3125 12.1875 C-0.450625 12.27 -1.21375 12.3525 -2 12.4375 C-4.6875 12.1875 -4.6875 12.1875 -6.5 10.5 C-7.90742268 7.75922952 -8.15523289 6.22776376 -7.6875 3.1875 C-5.3872906 0.12055414 -3.74599618 -0.1628694 0 0 Z " fill="#5C689F" transform="translate(90.6875,48.8125)"/>
<path d="M0 0 C0 3.96 0 7.92 0 12 C-9.625 12.25 -9.625 12.25 -13 10 C-13.3984375 8.125 -13.3984375 8.125 -13.375 6 C-13.38273437 5.29875 -13.39046875 4.5975 -13.3984375 3.875 C-12.16787263 -1.91589352 -4.33483313 -0.11259307 0 0 Z " fill="#CDD0E1" transform="translate(121,13)"/>
<path d="M0 0 C1 1 1 1 1.25 4.375 C1 8 1 8 -0.0625 10 C-3.19241926 11.6154422 -5.68174093 10.79884015 -9 10 C-10.39935013 7.20129973 -10.25265405 5.09501208 -10 2 C-7.64880534 -2.28747261 -4.22461819 -0.93880404 0 0 Z " fill="#4E5A96" transform="translate(104,14)"/>
<path d="M0 0 C3.5193218 3.5193218 4.89869206 5.70187011 7 10 C7.66 10.33 8.32 10.66 9 11 C9.268125 10.113125 9.53625 9.22625 9.8125 8.3125 C10.9250635 5.2090334 12.10195778 2.68889315 14 0 C14.66 0 15.32 0 16 0 C16 5.61 16 11.22 16 17 C15.34 17 14.68 17 14 17 C13.67 13.7 13.34 10.4 13 7 C11.68 9.31 10.36 11.62 9 14 C5.26360784 12.75453595 4.81243487 11.36595047 3 8 C2.67 10.97 2.34 13.94 2 17 C1.34 17 0.68 17 0 17 C0 11.39 0 5.78 0 0 Z " fill="#56629B" transform="translate(25,44)"/>
<path d="M0 0 C2.45862401 -0.05383848 4.9160755 -0.09359038 7.375 -0.125 C8.42300781 -0.15013672 8.42300781 -0.15013672 9.4921875 -0.17578125 C11.32897486 -0.19344267 13.16601963 -0.10303261 15 0 C17 2 17 2 17.1953125 4.3828125 C17.17210937 5.28773437 17.14890625 6.19265625 17.125 7.125 C17.10695312 8.03507812 17.08890625 8.94515625 17.0703125 9.8828125 C17.04710937 10.58148438 17.02390625 11.28015625 17 12 C16.34 12 15.68 12 15 12 C14.67 9.03 14.34 6.06 14 3 C12.68 3 11.36 3 10 3 C9.67 5.97 9.34 8.94 9 12 C8.34 12 7.68 12 7 12 C7 8.7 7 5.4 7 2 C5.68 2.33 4.36 2.66 3 3 C2.67 5.97 2.34 8.94 2 12 C1.34 12 0.68 12 0 12 C0 8.04 0 4.08 0 0 Z " fill="#4E5A96" transform="translate(111,49)"/>
<path d="M0 0 C5.75 -0.125 5.75 -0.125 8 1 C8 4.63 8 8.26 8 12 C1.84765625 12.09765625 1.84765625 12.09765625 0 12 C-1 11 -1 11 -1.125 8.5 C-1 6 -1 6 0 5 C1.99958364 4.95919217 4.00045254 4.95745644 6 5 C6 4.01 6 3.02 6 2 C3.69 2.33 1.38 2.66 -1 3 C-0.67 2.01 -0.34 1.02 0 0 Z " fill="#4C5995" transform="translate(46,49)"/>
<path d="M0 0 C2 2 2 2 2 6 C-0.97 6 -3.94 6 -7 6 C-6.01 7.485 -6.01 7.485 -5 9 C-1.41642759 9.25015873 -1.41642759 9.25015873 2 9 C2 9.66 2 10.32 2 11 C-0.82883747 12.41441874 -2.87376745 12.31900332 -6 12 C-8.35210784 9.88310295 -8.91810953 8.55958485 -9.375 5.4375 C-9 3 -9 3 -7.875 1.1875 C-5.16554166 -0.52849028 -3.13704316 -0.333728 0 0 Z " fill="#969EC1" transform="translate(106,49)"/>
<path d="M0 0 C1 1 1 1 1.09765625 3.50390625 C1.08605469 4.51324219 1.07445313 5.52257813 1.0625 6.5625 C1.05347656 7.57441406 1.04445313 8.58632813 1.03515625 9.62890625 C1.02355469 10.41136719 1.01195313 11.19382812 1 12 C-5.75 12.125 -5.75 12.125 -8 11 C-8 9.35 -8 7.7 -8 6 C-4.535 5.505 -4.535 5.505 -1 5 C-1 4.01 -1 3.02 -1 2 C-3.31 2.33 -5.62 2.66 -8 3 C-8 2.34 -8 1.68 -8 1 C-5.26752652 -0.36623674 -3.01801098 -0.128426 0 0 Z " fill="#767FAD" transform="translate(79,49)"/>
<path d="M0 0 C0.33 1.65 0.66 3.3 1 5 C-1.97 5 -4.94 5 -8 5 C-7.67 5.99 -7.34 6.98 -7 8 C-4.36 8 -1.72 8 1 8 C1 8.66 1 9.32 1 10 C-1.79870027 11.39935013 -3.90498792 11.25265405 -7 11 C-8.875 9.875 -8.875 9.875 -10 8 C-10.39310741 4.85514075 -10.47555213 2.86718329 -8.9375 0.0625 C-5.87530347 -1.61676907 -3.30629059 -0.68621125 0 0 Z " fill="#4B5794" transform="translate(134,14)"/>
<path d="M0 0 C2 2 2 2 2 6 C-0.64 6 -3.28 6 -6 6 C-5.67 6.99 -5.34 7.98 -5 9 C-2.69 9.33 -0.38 9.66 2 10 C0 12 0 12 -3 12.25 C-6 12 -6 12 -8 10 C-8.30078125 8.125 -8.30078125 8.125 -8.3125 6 C-8.32925781 5.29875 -8.34601563 4.5975 -8.36328125 3.875 C-8.24339844 3.25625 -8.12351563 2.6375 -8 2 C-4.77626323 -0.14915785 -3.73296326 -0.38286803 0 0 Z " fill="#56629B" transform="translate(139,49)"/>
<path d="M0 0 C3.5625 0.3125 3.5625 0.3125 6.5625 3.3125 C3.5925 3.3125 0.6225 3.3125 -2.4375 3.3125 C-2.7675 4.6325 -3.0975 5.9525 -3.4375 7.3125 C1.0175 8.3025 1.0175 8.3025 5.5625 9.3125 C6.25 11.625 6.25 11.625 6.5625 14.3125 C5.5625 16.125 5.5625 16.125 3.5625 17.3125 C-2.57596154 17.74326923 -2.57596154 17.74326923 -5.4375 16.3125 C-5.4375 15.6525 -5.4375 14.9925 -5.4375 14.3125 C-2.4675 14.3125 0.5025 14.3125 3.5625 14.3125 C3.5625 13.3225 3.5625 12.3325 3.5625 11.3125 C2.44875 11.02375 1.335 10.735 0.1875 10.4375 C-3.4375 9.3125 -3.4375 9.3125 -5.4375 7.3125 C-5.6875 4.8125 -5.6875 4.8125 -5.4375 2.3125 C-3.4375 0.3125 -3.4375 0.3125 0 0 Z " fill="#475492" transform="translate(85.4375,7.6875)"/>
<path d="M0 0 C6.8359375 -0.1953125 6.8359375 -0.1953125 9 0 C11 2 11 2 11.1953125 4.3828125 C11.17210938 5.28773437 11.14890625 6.19265625 11.125 7.125 C11.10695313 8.03507812 11.08890625 8.94515625 11.0703125 9.8828125 C11.04710938 10.58148438 11.02390625 11.28015625 11 12 C10.34 12 9.68 12 9 12 C8.67 9.03 8.34 6.06 8 3 C6.68 3 5.36 3 4 3 C3.67 5.97 3.34 8.94 3 12 C2.01 12 1.02 12 0 12 C0 8.04 0 4.08 0 0 Z " fill="#56629B" transform="translate(57,49)"/>
<path d="M0 0 C3 1 3 1 4.6875 4.0625 C5.120625 5.031875 5.55375 6.00125 6 7 C6.99 4.69 7.98 2.38 9 0 C9.66 0 10.32 0 11 0 C10.37748914 3.61185991 9.39374524 6.8004941 8 10.1875 C7.649375 11.04730469 7.29875 11.90710938 6.9375 12.79296875 C6.33387901 14.21399316 5.69045908 15.61908185 5 17 C4.34 17 3.68 17 3 17 C3.061875 15.865625 3.12375 14.73125 3.1875 13.5625 C3.21380222 8.66152009 1.76012394 4.526033 0 0 Z " fill="#55619A" transform="translate(145,13)"/>
<path d="M0 0 C6.0546875 -0.1953125 6.0546875 -0.1953125 8 0 C10 2 10 2 10.1953125 4.3828125 C10.17210937 5.28773437 10.14890625 6.19265625 10.125 7.125 C10.10695312 8.03507812 10.08890625 8.94515625 10.0703125 9.8828125 C10.04710937 10.58148438 10.02390625 11.28015625 10 12 C9.34 12 8.68 12 8 12 C8 8.7 8 5.4 8 2 C6.35 2.33 4.7 2.66 3 3 C2.67 5.97 2.34 8.94 2 12 C1.34 12 0.68 12 0 12 C0 8.04 0 4.08 0 0 Z " fill="#4A5794" transform="translate(144,49)"/>
<path d="M0 0 C0.33 0 0.66 0 1 0 C1 3.96 1 7.92 1 12 C-2.3 11.34 -5.6 10.68 -9 10 C-9.33 8.68 -9.66 7.36 -10 6 C-7.36 6 -4.72 6 -2 6 C-1.67 5.01 -1.34 4.02 -1 3 C-0.67 2.01 -0.34 1.02 0 0 Z " fill="#E7E8F0" transform="translate(143,49)"/>
<path d="M0 0 C0.33 0 0.66 0 1 0 C1 3.96 1 7.92 1 12 C0.01 11.67 -0.98 11.34 -2 11 C-2 10.34 -2 9.68 -2 9 C-4.31 9.33 -6.62 9.66 -9 10 C-9.66 8.68 -10.32 7.36 -11 6 C-8.03 6 -5.06 6 -2 6 C-1.34 4.02 -0.68 2.04 0 0 Z " fill="#E5E6EF" transform="translate(110,49)"/>
<path d="M0 0 C0.66 0 1.32 0 2 0 C2 1.32 2 2.64 2 4 C3.32 4 4.64 4 6 4 C6 4.66 6 5.32 6 6 C5.01 6 4.02 6 3 6 C3 8.64 3 11.28 3 14 C3.99 14 4.98 14 6 14 C6 14.66 6 15.32 6 16 C1.125 15.125 1.125 15.125 0 14 C-0.07179964 12.48071962 -0.08392007 10.95832518 -0.0625 9.4375 C-0.05347656 8.61121094 -0.04445312 7.78492188 -0.03515625 6.93359375 C-0.02355469 6.29550781 -0.01195312 5.65742187 0 5 C-0.66 4.67 -1.32 4.34 -2 4 C-1.34 4 -0.68 4 0 4 C0 2.68 0 1.36 0 0 Z " fill="#6A74A6" transform="translate(158,45)"/>
<path d="M0 0 C0.66 0 1.32 0 2 0 C2 1.32 2 2.64 2 4 C3.32 4 4.64 4 6 4 C6 4.66 6 5.32 6 6 C5.01 6 4.02 6 3 6 C3 8.64 3 11.28 3 14 C3.99 14 4.98 14 6 14 C6 14.66 6 15.32 6 16 C1.125 15.125 1.125 15.125 0 14 C-0.07179964 12.48071962 -0.08392007 10.95832518 -0.0625 9.4375 C-0.05347656 8.61121094 -0.04445312 7.78492188 -0.03515625 6.93359375 C-0.02355469 6.29550781 -0.01195312 5.65742188 0 5 C-0.66 4.67 -1.32 4.34 -2 4 C-1.34 4 -0.68 4 0 4 C0 2.68 0 1.36 0 0 Z " fill="#6A74A6" transform="translate(138,9)"/>
<path d="M0 0 C1.66611905 -0.042721 3.33382885 -0.04063832 5 0 C6 1 6 1 6.0625 4.0625 C6.041875 5.031875 6.02125 6.00125 6 7 C1.25 8.125 1.25 8.125 -1 7 C-0.67 4.69 -0.34 2.38 0 0 Z " fill="#EDEEF4" transform="translate(97,15)"/>
<path d="M0 0 C7.50661595 0.53618685 13.75410995 2.35057994 19 8 C18.67 8.66 18.34 9.32 18 10 C17.46632813 9.54625 16.93265625 9.0925 16.3828125 8.625 C12.78240402 6.16963946 8.8305939 5.28036985 4.6796875 4.0625 C2 3 2 3 0 0 Z " fill="#353336" transform="translate(40,18)"/>
<path d="M0 0 C7.67094905 0.1551111 12.88671509 1.25300799 19 6 C18.01 6.495 18.01 6.495 17 7 C16.29875 6.71125 15.5975 6.4225 14.875 6.125 C12.28938363 5.11323707 10.642354 4.82647888 7.9375 4.625 C3.74076603 3.95885175 2.54279528 3.28444391 0 0 Z " fill="#403E41" transform="translate(32,8)"/>
<path d="M0 0 C1.67542976 0.28604898 3.34385343 0.61781233 5 1 C5 2.98 5 4.96 5 7 C3.34385343 7.38218767 1.67542976 7.71395102 0 8 C-1 7 -1 7 -1.125 4 C-1 1 -1 1 0 0 Z " fill="#F9F9FB" transform="translate(87,51)"/>
<path d="M0 0 C0.33 0.66 0.66 1.32 1 2 C-0.98 2.33 -2.96 2.66 -5 3 C-5 4.98 -5 6.96 -5 9 C-2.03 9.495 -2.03 9.495 1 10 C0.67 10.66 0.34 11.32 0 12 C-6.875 11.125 -6.875 11.125 -8 10 C-8.37086093 4.1589404 -8.37086093 4.1589404 -8 2 C-4.77208445 -0.1519437 -3.71599191 -0.20086443 0 0 Z " fill="#546099" transform="translate(116,13)"/>
<path d="M0 0 C14.60806075 2.20940421 14.60806075 2.20940421 18.875 7.1875 C19.24625 7.785625 19.6175 8.38375 20 9 C19.360625 8.731875 18.72125 8.46375 18.0625 8.1875 C12.50414352 6.03221892 6.90473558 3.95237671 1 3 C0.67 2.01 0.34 1.02 0 0 Z " fill="#373438" transform="translate(37,13)"/>
<path d="M0 0 C0.66 0 1.32 0 2 0 C2 0.66 2 1.32 2 2 C4.64 2 7.28 2 10 2 C10 2.33 10 2.66 10 3 C7.36 3 4.72 3 2 3 C2.99 4.485 2.99 4.485 4 6 C7.58357241 6.25015873 7.58357241 6.25015873 11 6 C11 6.66 11 7.32 11 8 C8.17116253 9.41441874 6.12623255 9.31900332 3 9 C0.532661 6.7793949 0.03847554 5.56430797 -0.1875 2.25 C-0.125625 1.5075 -0.06375 0.765 0 0 Z " fill="#4C5895" transform="translate(97,52)"/>
<path d="M0 0 C0.66 0 1.32 0 2 0 C2 5.61 2 11.22 2 17 C1.34 17 0.68 17 0 17 C-0.19386492 14.35448944 -0.38038267 11.70882217 -0.5625 9.0625 C-0.61857422 8.30775391 -0.67464844 7.55300781 -0.73242188 6.77539062 C-0.86176157 4.85254042 -0.93516912 2.92610452 -1 1 C-0.67 0.67 -0.34 0.34 0 0 Z " fill="#4C5995" transform="translate(39,44)"/>
<path d="M0 0 C3.3 0 6.6 0 10 0 C10 0.66 10 1.32 10 2 C7.36 2 4.72 2 2 2 C2.33 2.99 2.66 3.98 3 5 C5.31 5.33 7.62 5.66 10 6 C8 8 8 8 5 8.25 C2 8 2 8 0 6 C-0.125 2.875 -0.125 2.875 0 0 Z " fill="#404D8E" transform="translate(131,53)"/>
<path d="M0 0 C0.66 0 1.32 0 2 0 C3.26237731 2.52475462 3.09856404 4.31200466 3.0625 7.125 C3.05347656 8.03507812 3.04445312 8.94515625 3.03515625 9.8828125 C3.02355469 10.58148438 3.01195312 11.28015625 3 12 C2.01 12 1.02 12 0 12 C0 8.04 0 4.08 0 0 Z " fill="#6B75A8" transform="translate(57,49)"/>
<path d="M0 0 C5.75 -0.125 5.75 -0.125 8 1 C8 2.32 8 3.64 8 5 C7.34 5 6.68 5 6 5 C6 4.01 6 3.02 6 2 C3.69 2.33 1.38 2.66 -1 3 C-0.67 2.01 -0.34 1.02 0 0 Z " fill="#58639C" transform="translate(46,49)"/>
<path d="M0 0 C3 1 3 1 4.625 3.9375 C5.07875 4.948125 5.5325 5.95875 6 7 C6.33 7.66 6.66 8.32 7 9 C5.68 9 4.36 9 3 9 C2.01 6.03 1.02 3.06 0 0 Z " fill="#5E699F" transform="translate(145,13)"/>
<path d="M0 0 C4.571279 0.54855348 8.67435795 1.41744803 13 3 C12.34 3.66 11.68 4.32 11 5 C7.37 4.01 3.74 3.02 0 2 C0 1.34 0 0.68 0 0 Z " fill="#AFB6CC" transform="translate(40,12)"/>
<path d="M0 0 C0.33 0.66 0.66 1.32 1 2 C-0.11375 2.2475 -1.2275 2.495 -2.375 2.75 C-6.04615198 3.61005339 -6.04615198 3.61005339 -7.4375 6.125 C-7.623125 6.74375 -7.80875 7.3625 -8 8 C-8.1875 5.125 -8.1875 5.125 -8 2 C-4.77208445 -0.1519437 -3.71599191 -0.20086443 0 0 Z " fill="#475492" transform="translate(116,13)"/>
<path d="M0 0 C0.33 0.66 0.66 1.32 1 2 C0.01 3.485 0.01 3.485 -1 5 C-1 4.01 -1 3.02 -1 2 C-3.31 2.33 -5.62 2.66 -8 3 C-8 2.34 -8 1.68 -8 1 C-5.29120665 -0.35439668 -2.99066732 -0.06501451 0 0 Z " fill="#606BA1" transform="translate(79,49)"/>
<path d="M0 0 C1.65 0 3.3 0 5 0 C5.33 0.99 5.66 1.98 6 3 C3.69 3 1.38 3 -1 3 C-0.67 2.01 -0.34 1.02 0 0 Z " fill="#EAEBF2" transform="translate(127,15)"/>
<path d="M0 0 C1.32 0 2.64 0 4 0 C3.67 1.32 3.34 2.64 3 4 C1.68 4 0.36 4 -1 4 C-0.67 2.68 -0.34 1.36 0 0 Z " fill="#E3E5EE" transform="translate(48,55)"/>
<path d="M0 0 C0.33 0 0.66 0 1 0 C1.33 2.31 1.66 4.62 2 7 C2.99 7.33 3.98 7.66 5 8 C5 8.66 5 9.32 5 10 C3.35 9.67 1.7 9.34 0 9 C0 6.03 0 3.06 0 0 Z " fill="#364488" transform="translate(159,51)"/>
<path d="M0 0 C0.33 0 0.66 0 1 0 C1.33 2.31 1.66 4.62 2 7 C2.99 7.33 3.98 7.66 5 8 C5 8.66 5 9.32 5 10 C3.35 9.67 1.7 9.34 0 9 C0 6.03 0 3.06 0 0 Z " fill="#364488" transform="translate(139,15)"/>
<path d="M0 0 C1.65 0 3.3 0 5 0 C5 0.99 5 1.98 5 3 C3.02 3 1.04 3 -1 3 C-0.67 2.01 -0.34 1.02 0 0 Z " fill="#F3F4F8" transform="translate(134,51)"/>
</svg>
